<?xml version="1.0" encoding="utf-8"?>
<!-- Generator: Adobe Illustrator 21.0.0, SVG Export Plug-In . SVG Version: 6.00 Build 0)  -->
<svg version="1.1" id="Calque_1" xmlns="http://www.w3.org/2000/svg" xmlns:xlink="http://www.w3.org/1999/xlink" x="0px" y="0px"
	 viewBox="0 0 85 51" style="enable-background:new 0 0 85 51;" xml:space="preserve">
<style type="text/css">
	.st0{fill:#CDBDD1;}
	.st1{fill:#FFECFD;}
</style>
<g>
	<path class="st0" d="M17.6,2.7L27.9,35L38.3,2.7H53v46.4H41.8V38.3l1.1-22.2l-11.2,33h-7.4L13,16l1.1,22.2v10.8H2.9V2.7H17.6z"/>
</g>
<path class="st1" d="M77.5,38.5c-3,0-5.4-2.4-5.5-5.3c-0.1,2.5-0.8,4.4-2.1,5.5c-1.3,1.2-3.2,1.8-5.7,1.8c-2.9,0-5-1-6.2-3.1
	c-1.2-2.1-1.8-5.5-1.8-10.3V24c0.1-4.4,0.7-7.6,2-9.7c1.3-2,3.2-3,5.9-3c2.7,0,4.6,0.6,5.9,1.8c1.3,1.2,2,3.2,2.1,5.9h10.8
	c-0.5-5-2.3-9-5.7-11.9c-3.3-2.9-7.7-4.3-13.2-4.3c-3.6,0-6.8,0.8-9.5,2.4v41.5c2.7,1.5,5.9,2.3,9.7,2.3c3.6,0,6.8-0.7,9.6-2
	c2.8-1.3,5-3.2,6.5-5.6c1.2-1.9,2-3.9,2.3-6.2C81.7,37.2,79.8,38.5,77.5,38.5z"/>
<circle class="st0" cx="77.6" cy="33.1" r="4.1"/>
</svg>
